<svg xmlns="http://www.w3.org/2000/svg" version="1.0" viewBox="0 0 300 300"><path d="M142 53.6c-11.3 3.1-20.2 10.5-25.4 21.4-2.7 5.8-3.1 7.5-3.1 15.5.1 7 .6 10.3 2.4 14.7 3.1 8.1 10.6 16 18.9 20 6.2 3.1 7.4 3.3 16.7 3.3s10.5-.2 16.6-3.2c12.6-6.3 20.8-18.2 21.7-31.8 1.2-19.7-11.4-36.3-30.6-40.4-6.8-1.4-10.4-1.3-17.2.5m34.1 26.9c7.9 4.1 6.3 19.6-3.2 29.9-13.4 14.6-36.4 12.2-46.4-4.8-2.9-5-4.6-13-3.8-17.9l.5-3.4 4.9 1.8c8.9 3.4 21.5 2.1 28.7-2.9 6-4.2 14.1-5.3 19.3-2.7"/><path d="M108.9 128.6c-10.5 3.2-19.5 12.1-20.6 20.2l-.6 4.2h128l-.7-3.8c-1-5.4-3.3-9.3-8.1-13.6-6.1-5.6-12-7.9-21.4-8.4-7.4-.4-8.4-.2-12 2.2-11.3 7.7-31.3 7.9-43 .5-3.8-2.4-5.6-2.9-10.8-2.8-3.4 0-8.3.7-10.8 1.5m-22.6 28.9c-6.2 2.7-6.3 3.5-6.3 44 0 23.3.4 37.3 1 38.6 1 1.8.6 1.9-11.5 1.9-12.5 0-12.6 0-12.3 2.3l.3 2.2 92.1.3c79.8.2 92.3 0 93.4-1.3 2.3-2.8 0-3.5-11.1-3.5-10.5 0-10.9-.1-9.9-1.9.6-1.3 1-15.3 1-38.6 0-40.7-.1-41.4-6.5-44.1-5-2.1-125.4-2-130.2.1m74 23.7c.2.7-2.7 10.4-6.6 21.5-5.6 16.3-7.3 20.3-8.8 20.3-1 0-2-.4-2.3-.9-.7-1 12-38.8 13.6-40.9.6-.6 1.6-1.2 2.3-1.2s1.5.6 1.8 1.2M138 192.1c0 1-.3 1.9-.7 1.9-.5 0-2.6 1.7-4.7 3.7l-4 3.7 4.9 4.2c3.2 2.9 4.6 4.8 4.2 5.8-.4.9-1.2 1.6-1.9 1.6-2 0-13.9-10.2-13.6-11.6.2-.7 3.2-3.8 6.6-6.8 6.4-5.4 9.2-6.2 9.2-2.5m37.3 3.2c3.1 2.7 5.7 5.5 5.7 6.2 0 1.6-11.6 11.5-13.5 11.5-3.2 0-2.4-2.5 2-7l4.8-4.9-4.9-4.4c-4.2-3.9-4.7-4.6-3.5-6.1 1.6-1.9 1.9-1.7 9.4 4.7"/></svg>